<svg aria-hidden="true" style="position: absolute; width: 0; height: 0; overflow: hidden;" version="1.1" xmlns="http://www.w3.org/2000/svg" xmlns:xlink="http://www.w3.org/1999/xlink">
<defs>
<symbol id="icon-black-hole" viewBox="0 0 32 32">
<path d="M16.285 12.34c0 0.125 0.375 0.125 0.375 0.125s0.105-0.27-0.5-2.915-1.75-4.105-1.835-4.145c-0.204-0.038-0.441-0.062-0.682-0.065l-0.003-0c0.479 0.656 0.954 1.406 1.381 2.187l0.054 0.108c0.71 1.455 1.21 4.58 1.21 4.705zM17.5 12.215c0.040 0.085 0.21 0.065 0.29 0.045 0.015-0.177 0.024-0.383 0.024-0.592 0-0.678-0.091-1.336-0.261-1.96l0.012 0.052c-0.331-1.243-0.715-2.304-1.178-3.321l0.053 0.131c-0.065-0.105-0.375-0.060-0.5-0.060 0.32 0.632 0.63 1.39 0.883 2.174l0.032 0.116c0.262 0.951 0.489 2.11 0.633 3.294l0.012 0.121zM18.645 12.465c0 0.065 0.21 0.105 0.295 0.125s0.125-0.165 0.060-1.33c0-0.010 0-0.022 0-0.033 0-0.776-0.113-1.525-0.324-2.232l0.014 0.055c-0.105-0.105-0.5-0.085-0.5-0.085 0.113 0.41 0.214 0.919 0.283 1.437l0.007 0.063c0.14 0.875 0.16 1.94 0.18 2zM23.145 14.175c0.853-0.438 1.546-1.084 2.027-1.873l0.013-0.022c0-0.105-0.040-0.21-0.165-0.19s-0.645 0.67-1.875 1.5c-0.58 0.405-1.301 0.647-2.077 0.647-0.038 0-0.076-0.001-0.113-0.002l0.006 0c-0.005 0.034-0.008 0.073-0.008 0.113 0 0.118 0.025 0.23 0.070 0.332l-0.002-0.005c0.059 0.003 0.128 0.005 0.198 0.005 0.706 0 1.369-0.187 1.941-0.515l-0.019 0.010zM22.58 16c1.5-0.275 2.1-1.125 2.145-1.25s0.040-0.335-0.045-0.335c-0.459 0.321-0.984 0.626-1.533 0.887l-0.067 0.028c-0.92 0.375-2.195 0.195-2.275 0.27-0.075 0.165-0.127 0.357-0.145 0.558l-0 0.007c0.020 0.135 0.44 0.115 1.92-0.165zM21.785 17.205c-0.625 0-0.79-0.080-0.855-0.125s-0.205 0.395-0.145 0.5 0 0 0.375 0.085c0.080 0.007 0.172 0.011 0.266 0.011 0.336 0 0.661-0.050 0.968-0.142l-0.024 0.006c0.125-0.045 0.145-0.335 0.165-0.395s-0.125 0.050-0.75 0.070zM19.080 18.5c0 0.1 0.35 1.060 1.75 1.975s4.31 0.835 4.58 0.815 0.27-0.355 0.27-0.46-0.145 0.045-0.935 0.045c-1.322-0.064-2.559-0.358-3.695-0.842l0.070 0.027c-0.96-0.5-1.665-1.915-1.665-1.915s-0.355 0.26-0.375 0.355zM19.58 20.705c-0.661-0.625-1.223-1.345-1.667-2.14l-0.023-0.045c-0.056-0.015-0.121-0.023-0.188-0.023s-0.131 0.008-0.193 0.024l0.005-0.001c-0.105 0.060 0.19 1.105 1.565 2.375 0.781 0.789 1.846 1.296 3.029 1.355l0.011 0c0.23-0.045 0.105-0.145 0.085-0.27s-1.46-0.245-2.605-1.265zM17.995 20.955c-0.539-0.63-0.943-1.393-1.157-2.232l-0.008-0.038s-0.325-0.26-0.42-0.145-0.040 0.665 0.625 1.79c0.388 0.724 0.939 1.315 1.606 1.739l0.019 0.011c0.19 0.065 0.25 0 0.295-0.080s-0.065-0.075-0.955-1.035zM15.785 18.725c0.025-0.060-0.35-0.145-0.35-0.080-0.010 0.12-0.016 0.259-0.016 0.399 0 0.681 0.134 1.331 0.378 1.924l-0.012-0.034c0.105 0.125 0.5 0.145 0.565 0.040s-0.27-0.415-0.44-0.955c-0.076-0.284-0.12-0.61-0.12-0.946 0-0.119 0.006-0.237 0.016-0.354l-0.001 0.015zM15.035 18.54s-0.24-0.455-0.375-0.415-0.33 0.975-0.455 1.56c-0.099 0.431-0.155 0.927-0.155 1.435 0 0.777 0.132 1.523 0.375 2.217l-0.014-0.047c0.565 1.855 2.5 4.355 2.5 4.355s0.17-0.065 0.19-0.21-1.5-2.395-2.29-4.25 0.245-4.635 0.245-4.635zM14.185 17.33s-0.145-0.285-0.25-0.25c-0.19 0.065-0.875 1.375-1.15 3.815s1.15 5.395 1.25 5.455 0.355 0.125 0.4 0-1.045-2.125-1.25-4.58c-0.010-0.151-0.016-0.327-0.016-0.505 0-1.443 0.384-2.797 1.056-3.964l-0.020 0.039zM12 19.885c0.12-1.234 0.604-2.337 1.343-3.219l-0.008 0.009s-0.045-0.28-0.145-0.25c-0.295 0.085-1.335 1.5-1.585 2.75-0.066 0.471-0.103 1.016-0.103 1.569 0 0.696 0.059 1.379 0.173 2.042l-0.010-0.071c0.065 0.105 0.335 0.105 0.4 0.065-0.063-0.549-0.098-1.185-0.098-1.829 0-0.375 0.012-0.747 0.036-1.116l-0.003 0.050zM11.23 17.385c-0.105 0.080-0.875 1.27-0.915 1.33s0.185 0.125 0.31 0.15 0.79-1.355 0.79-1.355-0.065-0.19-0.17-0.105zM12.895 15.59c-0.080-0.060-2.105 0.775-4.080 2.15-1.278 0.947-2.321 2.135-3.077 3.504l-0.028 0.056s0.31 0.23 0.435 0.21 0.82-1.71 2.295-3 4.375-2.545 4.455-2.585 0.105-0.25 0.015-0.315zM6.805 18.465c0.742-0.928 1.594-1.726 2.546-2.389l0.039-0.026c1.415-1 3.69-1.335 3.69-1.335s0.060-0.27 0-0.33c-1.393 0.139-2.66 0.576-3.77 1.248l0.040-0.023c-1.161 0.755-2.151 1.653-2.981 2.686l-0.019 0.024s0.25 0.375 0.25 0.375c0.086-0.059 0.155-0.136 0.203-0.227l0.002-0.003zM12.41 13.155c-0.705 0.060-2.085 0.205-2.165 0.23s-0.145 0.475-0.145 0.54 0.23-0.040 1-0.25c0.416-0.077 0.896-0.121 1.385-0.121 0.268 0 0.532 0.013 0.793 0.039l-0.033-0.003c0.052-0.070 0.089-0.155 0.105-0.247l0-0.003c0-0.105-0.23-0.25-0.94-0.185zM9.41 12.53c0-0.105-0.665-0.355-1.915-0.21-0.815 0.092-1.537 0.224-2.241 0.4l0.116-0.025s-0.125 0.355-0.105 0.44 0.735-0.135 1.735-0.315c0.269-0.033 0.58-0.051 0.896-0.051 0.516 0 1.020 0.050 1.509 0.144l-0.050-0.008c0.075 0 0.1-0.27 0.075-0.375zM8.685 11.405c0.375-0.035 0.81-0.055 1.25-0.055 0.729 0 1.444 0.054 2.144 0.159l-0.079-0.010c2.085 0.25 2.665 1.165 2.665 1.165l0.44-0.19s-0.5-0.975-2.71-1.455c-0.647-0.156-1.391-0.246-2.155-0.246s-1.508 0.090-2.22 0.259l0.065-0.013c-0.19 0.085-0.5 0.35-0.42 0.375 0.183 0.013 0.396 0.020 0.61 0.020 0.151 0 0.302-0.004 0.451-0.011l-0.021 0.001zM15.5 12.11h0.25s0.19-0.31-0.665-1.145c-0.55-0.526-1.27-0.877-2.069-0.964l-0.016-0.001c-0.313 0.054-0.593 0.148-0.852 0.278l0.017-0.008s0.5 0.105 1.585 0.355 1.75 1.485 1.75 1.485zM4.245 7.57c0.165 0.040 0.77-0.335 2.040-0.605 0.222-0.041 0.478-0.064 0.738-0.064 0.623 0 1.214 0.132 1.749 0.37l-0.027-0.011c0.071-0.099 0.116-0.221 0.125-0.353l0-0.002c0-0.19-1.21-0.75-2.585-0.585s-2.345 0.68-2.285 0.73 0.080 0.48 0.245 0.52zM5.5 4.030s0 0.75 0.125 0.77 0.415-0.585 0.415-0.585 0.73 0.605 0.855 0.46-0.25-0.835-0.23-0.94 0.23-0.415 0.105-0.625-0.435 0.045-0.435 0.045-0.395-1-0.545-1-0.085 0.96-0.145 1-1 0.205-1 0.31 0.855 0.565 0.855 0.565zM27.1 16.405l0.25 0.375c0.32-0.273 0.607-0.566 0.865-0.883l0.010-0.012c0.469-0.583 0.833-1.272 1.050-2.024l0.010-0.041c0.045-0.085-0.38-0.265-0.455-0.23-0.21 0.105-0.46 0.835-0.69 1.5-0.25 0.525-0.602 0.965-1.033 1.309l-0.007 0.006zM24.85 3.905c0.105 0 0 1.085 0.185 1.145s0.465-0.55 0.545-0.625 0.5 0.085 0.5 0.085l0.080-0.65s0.21-0.27 0.19-0.395-0.5-0.145-0.585-0.125-0.435-0.84-0.665-0.81-0.19 0.73-0.23 0.81-0.785-0.065-0.815 0.065c-0.055 0.29 0.69 0.52 0.795 0.52zM20.705 5.405c0.83 1.19 0.85 3.27 0.875 3.415s0.145 0.125 0.31 0.045 0.25-1.25-0.375-2.96c-0.454-1.174-1.251-2.133-2.267-2.776l-0.023-0.014c-0.168 0.047-0.314 0.117-0.445 0.208l0.005-0.003c0.711 0.634 1.342 1.33 1.894 2.087l0.026 0.038zM4.705 27.615c-0.21 0-0.315 0.665-0.355 0.77l-0.85 0.27c-0.005 0.027-0.008 0.059-0.008 0.091 0 0.113 0.035 0.219 0.094 0.306l-0.001-0.002c0.125 0.125 0.605 0.105 0.605 0.105s0 0.645 0.145 0.705 0.5-0.35 0.58-0.435 0.67 0.185 0.73 0.085-0.145-0.46-0.125-0.565 0.335-0.29 0.315-0.375-0.585-0.085-0.67-0.105-0.235-0.79-0.44-0.81zM26.785 26.115c-0.060-0.125-2 0.145-3.25 0s-2.38-0.8-2.455-0.75c-0.157 0.117-0.257 0.302-0.257 0.51 0 0.033 0.003 0.066 0.008 0.098l-0-0.004c0.040 0.29 1.080 0.415 2.455 0.645 0.526 0.082 1.132 0.13 1.75 0.13s1.224-0.047 1.816-0.138l-0.066 0.008c0.034-0.075 0.055-0.163 0.055-0.255 0-0.073-0.013-0.144-0.036-0.209l0.001 0.004zM26.39 27.695c-1 0.335-1.165 1.4-0.56 1.815s1.955 0.25 2-0.75c0-0.011 0.001-0.023 0.001-0.035 0-0.583-0.472-1.055-1.055-1.055-0.131 0-0.257 0.024-0.373 0.068l0.007-0.002zM27.5 28.965c-0.065 0.375-0.855 0.565-1.23 0.355s-0.355-0.875 0.395-1.165c0.51-0.21 0.87 0.435 0.835 0.81zM29.875 25.57c0.058-0.052 0.094-0.126 0.094-0.209 0-0.062-0.020-0.12-0.055-0.166l0.001 0.001c-0.121-0.080-0.269-0.128-0.429-0.128-0.025 0-0.050 0.001-0.075 0.004l0.003-0c-0.105 0-0.29-0.71-0.5-0.73s-0.29 0.795-0.315 0.92-0.6-0.035-0.6 0.060c0 0.27 0.58 0.44 0.58 0.44s-0.185 0.665-0.060 0.81 0.5-0.23 0.5-0.23 0.29 0.17 0.46 0.085-0.19-0.645-0.19-0.71 0.455-0.080 0.56-0.145zM9.27 27.070c-1.085-1.75-0.165-3.565-0.145-3.665s-0.265-0.225-0.335-0.15c-0.585 0.65-0.79 2.25-0.29 3.5s2.125 3 2.31 2.96 0.375-0.165 0.315-0.375-0.795-0.54-1.88-2.29zM18.935 26.945c-2-1.145-2.625-3.71-2.54-3.79s0.625 0.415 1.81 0.705c0.825 0.18 1.773 0.284 2.746 0.284 1.485 0 2.914-0.241 4.249-0.686l-0.095 0.027c2.75-0.955 4.56-3.27 4.645-3.56s0.125-1.085-0.145-1.17-2.105 0.46-3.605 0.525-2.625-0.21-2.605-0.315c0.738-0.426 1.369-0.938 1.909-1.533l0.006-0.007c1.25-1.335 1.775-2.73 2-5.69s-0.31-5.235-0.69-5.665-1.085-0.040-1.21 0.19c-0.271 1.356-0.725 2.561-1.342 3.662l0.032-0.062c-0.719 1.084-1.798 1.88-3.063 2.221l-0.037 0.009c-0.027-1.432-0.354-2.781-0.921-3.996l0.026 0.061c-1-2.315-3.42-4.045-6.565-4.565s-4.955 0.22-5.060 0.25c-0.46 0.125-0.275 0.645-0.17 0.855s0.25 0.085 0.5 0.085 0.375-0.17 2 0.31 2.5 3.69 2.5 3.69c-0.034-0-0.074-0-0.115-0-0.906 0-1.798 0.060-2.673 0.176l0.102-0.011c-1.984 0.286-3.765 0.961-5.331 1.948l0.056-0.033c-2.56 1.565-3.25 5.21-3.25 5.4s0.605 0.5 0.73 0.54 0.25-0.29 1.295-1.375c0.706-0.66 1.656-1.065 2.702-1.065 0.001 0 0.002 0 0.003 0h0.52c-0.567 0.503-1.074 1.050-1.525 1.642l-0.020 0.028c-0.93 1.547-1.537 3.386-1.683 5.354l-0.002 0.041c-0.085 2.23 1.71 4.31 1.835 4.415s0.54 0 0.645-0.145 0.040-0.56 0-0.915c-0-0.019-0-0.042-0-0.065 0-0.983 0.311-1.894 0.84-2.639l-0.010 0.014c0.628-0.651 1.385-1.173 2.231-1.524l0.044-0.016c-0.005 0.117-0.007 0.255-0.007 0.394 0 1.123 0.176 2.206 0.503 3.22l-0.021-0.074c0.565 1.41 2.21 3.645 5.42 4.91s6 0.4 6.31 0.19c0.231-0.132 0.383-0.377 0.383-0.657 0-0.040-0.003-0.079-0.009-0.117l0.001 0.004c-0.060-0.245-1.375-0.35-3.375-1.495zM19.935 28.8c-0.085 0.080-3.29 0.060-5.415-1.27s-3.565-4.085-3.75-4.73-0.27-2.565-0.34-2.8-0.665-0.4-1-0.23-2.205 0.965-2.93 2.34-0.73 1.605-0.73 1.605c-0.471-0.813-0.748-1.788-0.748-2.828 0-0.482 0.059-0.949 0.172-1.396l-0.008 0.039c0.563-1.93 1.606-3.573 2.992-4.848l0.008-0.007c0.65-0.46 1.17-0.75 1.15-0.835-0.563-0.328-1.239-0.522-1.961-0.522-0.146 0-0.29 0.008-0.432 0.023l0.018-0.002c-1.022 0.165-1.939 0.463-2.788 0.881l0.058-0.026c-0.235 0.165-0.503 0.313-0.787 0.43l-0.028 0.010s1-1.94 1.96-2.71c1.545-1.131 3.409-1.921 5.432-2.222l0.068-0.008c1.019-0.17 2.195-0.268 3.393-0.27h0.002c0.076-0.039 0.139-0.095 0.184-0.163l0.001-0.002s-0.165-1.835-1.040-2.94c-0.591-0.717-1.218-1.358-1.895-1.943l-0.020-0.017c0.125-0.040 4.375 0 6.315 2.21s2.185 5.19 2.22 5.585 0 0.83 0.19 0.895 1.205 0 2.5-0.835c0.884-0.531 1.602-1.255 2.11-2.117l0.015-0.028c0.54-0.81 1.125-2.375 1.31-2.415s0.84 3.080-0.16 6.345-2.795 4.36-3.34 4.5-0.79 0.080-0.895 0.225 0.165 0.67 0.29 0.71-0.040 0.46 2.44 0.5 3.915-0.31 3.96-0.185-1 1.855-3 2.58-4.5 1-5.545 0.835c-1.262-0.264-2.362-0.609-3.415-1.046l0.125 0.046c-0.335-0.165-0.665-0.355-0.875-0.23s-0.685 1.69 0.395 3.295c0.923 1.229 2.003 2.276 3.225 3.135l0.045 0.030c0.355 0.26 0.59 0.3 0.48 0.385zM16.225 13c-1.625 0.42-1.965 2.27-1.645 3.46 0.5 1.875 4.685 2.23 4.955-0.645s-1.78-3.22-3.31-2.815zM18.725 15.62c-0.185 1.94-2.83 1.78-3.265 0.655s-0.275-2.165 1.145-2.545c1.025-0.29 2.295-0.065 2.115 1.875z"></path>
</symbol>
<symbol id="icon-black-hole-tr" viewBox="0 0 32 32">
<path d="M16.285 12.34c0 0.125 0.375 0.125 0.375 0.125s0.105-0.27-0.5-2.915-1.75-4.105-1.835-4.145c-0.204-0.038-0.441-0.062-0.682-0.065l-0.003-0c0.479 0.656 0.954 1.406 1.381 2.187l0.054 0.108c0.71 1.455 1.21 4.58 1.21 4.705zM17.5 12.215c0.040 0.085 0.21 0.065 0.29 0.045 0.015-0.177 0.024-0.383 0.024-0.592 0-0.678-0.091-1.336-0.261-1.96l0.012 0.052c-0.331-1.243-0.715-2.304-1.178-3.321l0.053 0.131c-0.065-0.105-0.375-0.060-0.5-0.060 0.32 0.632 0.63 1.39 0.883 2.174l0.032 0.116c0.262 0.951 0.489 2.11 0.633 3.294l0.012 0.121zM18.645 12.465c0 0.065 0.21 0.105 0.295 0.125s0.125-0.165 0.060-1.33c0-0.010 0-0.022 0-0.033 0-0.776-0.113-1.525-0.324-2.232l0.014 0.055c-0.105-0.105-0.5-0.085-0.5-0.085 0.113 0.41 0.214 0.919 0.283 1.437l0.007 0.063c0.14 0.875 0.16 1.94 0.18 2zM23.145 14.175c0.853-0.438 1.546-1.084 2.027-1.873l0.013-0.022c0-0.105-0.040-0.21-0.165-0.19s-0.645 0.67-1.875 1.5c-0.58 0.405-1.301 0.647-2.077 0.647-0.038 0-0.076-0.001-0.113-0.002l0.006 0c-0.005 0.034-0.008 0.073-0.008 0.113 0 0.118 0.025 0.23 0.070 0.332l-0.002-0.005c0.059 0.003 0.128 0.005 0.198 0.005 0.706 0 1.369-0.187 1.941-0.515l-0.019 0.010zM22.58 16c1.5-0.275 2.1-1.125 2.145-1.25s0.040-0.335-0.045-0.335c-0.459 0.321-0.984 0.626-1.533 0.887l-0.067 0.028c-0.92 0.375-2.195 0.195-2.275 0.27-0.075 0.165-0.127 0.357-0.145 0.558l-0 0.007c0.020 0.135 0.44 0.115 1.92-0.165zM21.785 17.205c-0.625 0-0.79-0.080-0.855-0.125s-0.205 0.395-0.145 0.5 0 0 0.375 0.085c0.080 0.007 0.172 0.011 0.266 0.011 0.336 0 0.661-0.050 0.968-0.142l-0.024 0.006c0.125-0.045 0.145-0.335 0.165-0.395s-0.125 0.050-0.75 0.070zM19.080 18.5c0 0.1 0.35 1.060 1.75 1.975s4.31 0.835 4.58 0.815 0.27-0.355 0.27-0.46-0.145 0.045-0.935 0.045c-1.322-0.064-2.559-0.358-3.695-0.842l0.070 0.027c-0.96-0.5-1.665-1.915-1.665-1.915s-0.355 0.26-0.375 0.355zM19.58 20.705c-0.661-0.625-1.223-1.345-1.667-2.14l-0.023-0.045c-0.056-0.015-0.121-0.023-0.188-0.023s-0.131 0.008-0.193 0.024l0.005-0.001c-0.105 0.060 0.19 1.105 1.565 2.375 0.781 0.789 1.846 1.296 3.029 1.355l0.011 0c0.23-0.045 0.105-0.145 0.085-0.27s-1.46-0.245-2.605-1.265zM17.995 20.955c-0.539-0.63-0.943-1.393-1.157-2.232l-0.008-0.038s-0.325-0.26-0.42-0.145-0.040 0.665 0.625 1.79c0.388 0.724 0.939 1.315 1.606 1.739l0.019 0.011c0.19 0.065 0.25 0 0.295-0.080s-0.065-0.075-0.955-1.035zM15.785 18.725c0.025-0.060-0.35-0.145-0.35-0.080-0.010 0.12-0.016 0.259-0.016 0.399 0 0.681 0.134 1.331 0.378 1.924l-0.012-0.034c0.105 0.125 0.5 0.145 0.565 0.040s-0.27-0.415-0.44-0.955c-0.076-0.284-0.12-0.61-0.12-0.946 0-0.119 0.006-0.237 0.016-0.354l-0.001 0.015zM15.035 18.54s-0.24-0.455-0.375-0.415-0.33 0.975-0.455 1.56c-0.099 0.431-0.155 0.927-0.155 1.435 0 0.777 0.132 1.523 0.375 2.217l-0.014-0.047c0.565 1.855 2.5 4.355 2.5 4.355s0.17-0.065 0.19-0.21-1.5-2.395-2.29-4.25 0.245-4.635 0.245-4.635zM14.185 17.33s-0.145-0.285-0.25-0.25c-0.19 0.065-0.875 1.375-1.15 3.815s1.15 5.395 1.25 5.455 0.355 0.125 0.4 0-1.045-2.125-1.25-4.58c-0.010-0.151-0.016-0.327-0.016-0.505 0-1.443 0.384-2.797 1.056-3.964l-0.020 0.039zM12 19.885c0.12-1.234 0.604-2.337 1.343-3.219l-0.008 0.009s-0.045-0.28-0.145-0.25c-0.295 0.085-1.335 1.5-1.585 2.75-0.066 0.471-0.103 1.016-0.103 1.569 0 0.696 0.059 1.379 0.173 2.042l-0.010-0.071c0.065 0.105 0.335 0.105 0.4 0.065-0.063-0.549-0.098-1.185-0.098-1.829 0-0.375 0.012-0.747 0.036-1.116l-0.003 0.050zM11.23 17.385c-0.105 0.080-0.875 1.27-0.915 1.33s0.185 0.125 0.31 0.15 0.79-1.355 0.79-1.355-0.065-0.19-0.17-0.105zM12.895 15.59c-0.080-0.060-2.105 0.775-4.080 2.15-1.278 0.947-2.321 2.135-3.077 3.504l-0.028 0.056s0.31 0.23 0.435 0.21 0.82-1.71 2.295-3 4.375-2.545 4.455-2.585 0.105-0.25 0.015-0.315zM6.805 18.465c0.742-0.928 1.594-1.726 2.546-2.389l0.039-0.026c1.415-1 3.69-1.335 3.69-1.335s0.060-0.27 0-0.33c-1.393 0.139-2.66 0.576-3.77 1.248l0.040-0.023c-1.161 0.755-2.151 1.653-2.981 2.686l-0.019 0.024s0.25 0.375 0.25 0.375c0.086-0.059 0.155-0.136 0.203-0.227l0.002-0.003zM12.41 13.155c-0.705 0.060-2.085 0.205-2.165 0.23s-0.145 0.475-0.145 0.54 0.23-0.040 1-0.25c0.416-0.077 0.896-0.121 1.385-0.121 0.268 0 0.532 0.013 0.793 0.039l-0.033-0.003c0.052-0.070 0.089-0.155 0.105-0.247l0-0.003c0-0.105-0.23-0.25-0.94-0.185zM9.41 12.53c0-0.105-0.665-0.355-1.915-0.21-0.815 0.092-1.537 0.224-2.241 0.4l0.116-0.025s-0.125 0.355-0.105 0.44 0.735-0.135 1.735-0.315c0.269-0.033 0.58-0.051 0.896-0.051 0.516 0 1.020 0.050 1.509 0.144l-0.050-0.008c0.075 0 0.1-0.27 0.075-0.375zM8.685 11.405c0.375-0.035 0.81-0.055 1.25-0.055 0.729 0 1.444 0.054 2.144 0.159l-0.079-0.010c2.085 0.25 2.665 1.165 2.665 1.165l0.44-0.19s-0.5-0.975-2.71-1.455c-0.647-0.156-1.391-0.246-2.155-0.246s-1.508 0.090-2.22 0.259l0.065-0.013c-0.19 0.085-0.5 0.35-0.42 0.375 0.183 0.013 0.396 0.020 0.61 0.020 0.151 0 0.302-0.004 0.451-0.011l-0.021 0.001zM15.5 12.11h0.25s0.19-0.31-0.665-1.145c-0.55-0.526-1.27-0.877-2.069-0.964l-0.016-0.001c-0.313 0.054-0.593 0.148-0.852 0.278l0.017-0.008s0.5 0.105 1.585 0.355 1.75 1.485 1.75 1.485zM4.245 7.57c0.165 0.040 0.77-0.335 2.040-0.605 0.222-0.041 0.478-0.064 0.738-0.064 0.623 0 1.214 0.132 1.749 0.37l-0.027-0.011c0.071-0.099 0.116-0.221 0.125-0.353l0-0.002c0-0.19-1.21-0.75-2.585-0.585s-2.345 0.68-2.285 0.73 0.080 0.48 0.245 0.52zM5.5 4.030s0 0.75 0.125 0.77 0.415-0.585 0.415-0.585 0.73 0.605 0.855 0.46-0.25-0.835-0.23-0.94 0.23-0.415 0.105-0.625-0.435 0.045-0.435 0.045-0.395-1-0.545-1-0.085 0.96-0.145 1-1 0.205-1 0.31 0.855 0.565 0.855 0.565zM27.1 16.405l0.25 0.375c0.32-0.273 0.607-0.566 0.865-0.883l0.010-0.012c0.469-0.583 0.833-1.272 1.050-2.024l0.010-0.041c0.045-0.085-0.38-0.265-0.455-0.23-0.21 0.105-0.46 0.835-0.69 1.5-0.25 0.525-0.602 0.965-1.033 1.309l-0.007 0.006zM24.85 3.905c0.105 0 0 1.085 0.185 1.145s0.465-0.55 0.545-0.625 0.5 0.085 0.5 0.085l0.080-0.65s0.21-0.27 0.19-0.395-0.5-0.145-0.585-0.125-0.435-0.84-0.665-0.81-0.19 0.73-0.23 0.81-0.785-0.065-0.815 0.065c-0.055 0.29 0.69 0.52 0.795 0.52zM20.705 5.405c0.83 1.19 0.85 3.27 0.875 3.415s0.145 0.125 0.31 0.045 0.25-1.25-0.375-2.96c-0.454-1.174-1.251-2.133-2.267-2.776l-0.023-0.014c-0.168 0.047-0.314 0.117-0.445 0.208l0.005-0.003c0.711 0.634 1.342 1.33 1.894 2.087l0.026 0.038zM4.705 27.615c-0.21 0-0.315 0.665-0.355 0.77l-0.85 0.27c-0.005 0.027-0.008 0.059-0.008 0.091 0 0.113 0.035 0.219 0.094 0.306l-0.001-0.002c0.125 0.125 0.605 0.105 0.605 0.105s0 0.645 0.145 0.705 0.5-0.35 0.58-0.435 0.67 0.185 0.73 0.085-0.145-0.46-0.125-0.565 0.335-0.29 0.315-0.375-0.585-0.085-0.67-0.105-0.235-0.79-0.44-0.81zM26.785 26.115c-0.060-0.125-2 0.145-3.25 0s-2.38-0.8-2.455-0.75c-0.157 0.117-0.257 0.302-0.257 0.51 0 0.033 0.003 0.066 0.008 0.098l-0-0.004c0.040 0.29 1.080 0.415 2.455 0.645 0.526 0.082 1.132 0.13 1.75 0.13s1.224-0.047 1.816-0.138l-0.066 0.008c0.034-0.075 0.055-0.163 0.055-0.255 0-0.073-0.013-0.144-0.036-0.209l0.001 0.004zM26.39 27.695c-1 0.335-1.165 1.4-0.56 1.815s1.955 0.25 2-0.75c0-0.011 0.001-0.023 0.001-0.035 0-0.583-0.472-1.055-1.055-1.055-0.131 0-0.257 0.024-0.373 0.068l0.007-0.002zM27.5 28.965c-0.065 0.375-0.855 0.565-1.23 0.355s-0.355-0.875 0.395-1.165c0.51-0.21 0.87 0.435 0.835 0.81zM29.875 25.57c0.058-0.052 0.094-0.126 0.094-0.209 0-0.062-0.020-0.12-0.055-0.166l0.001 0.001c-0.121-0.080-0.269-0.128-0.429-0.128-0.025 0-0.050 0.001-0.075 0.004l0.003-0c-0.105 0-0.29-0.71-0.5-0.73s-0.29 0.795-0.315 0.92-0.6-0.035-0.6 0.060c0 0.27 0.58 0.44 0.58 0.44s-0.185 0.665-0.060 0.81 0.5-0.23 0.5-0.23 0.29 0.17 0.46 0.085-0.19-0.645-0.19-0.71 0.455-0.080 0.56-0.145zM9.27 27.070c-1.085-1.75-0.165-3.565-0.145-3.665s-0.265-0.225-0.335-0.15c-0.585 0.65-0.79 2.25-0.29 3.5s2.125 3 2.31 2.96 0.375-0.165 0.315-0.375-0.795-0.54-1.88-2.29zM18.935 26.945c-2-1.145-2.625-3.71-2.54-3.79s0.625 0.415 1.81 0.705c0.825 0.18 1.773 0.284 2.746 0.284 1.485 0 2.914-0.241 4.249-0.686l-0.095 0.027c2.75-0.955 4.56-3.27 4.645-3.56s0.125-1.085-0.145-1.17-2.105 0.46-3.605 0.525-2.625-0.21-2.605-0.315c0.738-0.426 1.369-0.938 1.909-1.533l0.006-0.007c1.25-1.335 1.775-2.73 2-5.69s-0.31-5.235-0.69-5.665-1.085-0.040-1.21 0.19c-0.271 1.356-0.725 2.561-1.342 3.662l0.032-0.062c-0.719 1.084-1.798 1.88-3.063 2.221l-0.037 0.009c-0.027-1.432-0.354-2.781-0.921-3.996l0.026 0.061c-1-2.315-3.42-4.045-6.565-4.565s-4.955 0.22-5.060 0.25c-0.46 0.125-0.275 0.645-0.17 0.855s0.25 0.085 0.5 0.085 0.375-0.17 2 0.31 2.5 3.69 2.5 3.69c-0.034-0-0.074-0-0.115-0-0.906 0-1.798 0.060-2.673 0.176l0.102-0.011c-1.984 0.286-3.765 0.961-5.331 1.948l0.056-0.033c-2.56 1.565-3.25 5.21-3.25 5.4s0.605 0.5 0.73 0.54 0.25-0.29 1.295-1.375c0.706-0.66 1.656-1.065 2.702-1.065 0.001 0 0.002 0 0.003 0h0.52c-0.567 0.503-1.074 1.050-1.525 1.642l-0.020 0.028c-0.93 1.547-1.537 3.386-1.683 5.354l-0.002 0.041c-0.085 2.23 1.71 4.31 1.835 4.415s0.54 0 0.645-0.145 0.040-0.56 0-0.915c-0-0.019-0-0.042-0-0.065 0-0.983 0.311-1.894 0.84-2.639l-0.010 0.014c0.628-0.651 1.385-1.173 2.231-1.524l0.044-0.016c-0.005 0.117-0.007 0.255-0.007 0.394 0 1.123 0.176 2.206 0.503 3.22l-0.021-0.074c0.565 1.41 2.21 3.645 5.42 4.91s6 0.4 6.31 0.19c0.231-0.132 0.383-0.377 0.383-0.657 0-0.040-0.003-0.079-0.009-0.117l0.001 0.004c-0.060-0.245-1.375-0.35-3.375-1.495zM19.935 28.8c-0.085 0.080-3.29 0.060-5.415-1.27s-3.565-4.085-3.75-4.73-0.27-2.565-0.34-2.8-0.665-0.4-1-0.23-2.205 0.965-2.93 2.34-0.73 1.605-0.73 1.605c-0.471-0.813-0.748-1.788-0.748-2.828 0-0.482 0.059-0.949 0.172-1.396l-0.008 0.039c0.563-1.93 1.606-3.573 2.992-4.848l0.008-0.007c0.65-0.46 1.17-0.75 1.15-0.835-0.563-0.328-1.239-0.522-1.961-0.522-0.146 0-0.29 0.008-0.432 0.023l0.018-0.002c-1.022 0.165-1.939 0.463-2.788 0.881l0.058-0.026c-0.235 0.165-0.503 0.313-0.787 0.43l-0.028 0.010s1-1.94 1.96-2.71c1.545-1.131 3.409-1.921 5.432-2.222l0.068-0.008c1.019-0.17 2.195-0.268 3.393-0.27h0.002c0.076-0.039 0.139-0.095 0.184-0.163l0.001-0.002s-0.165-1.835-1.040-2.94c-0.591-0.717-1.218-1.358-1.895-1.943l-0.020-0.017c0.125-0.040 4.375 0 6.315 2.21s2.185 5.19 2.22 5.585 0 0.83 0.19 0.895 1.205 0 2.5-0.835c0.884-0.531 1.602-1.255 2.11-2.117l0.015-0.028c0.54-0.81 1.125-2.375 1.31-2.415s0.84 3.080-0.16 6.345-2.795 4.36-3.34 4.5-0.79 0.080-0.895 0.225 0.165 0.67 0.29 0.71-0.040 0.46 2.44 0.5 3.915-0.31 3.96-0.185-1 1.855-3 2.58-4.5 1-5.545 0.835c-1.262-0.264-2.362-0.609-3.415-1.046l0.125 0.046c-0.335-0.165-0.665-0.355-0.875-0.23s-0.685 1.69 0.395 3.295c0.923 1.229 2.003 2.276 3.225 3.135l0.045 0.030c0.355 0.26 0.59 0.3 0.48 0.385zM16.225 13c-1.625 0.42-1.965 2.27-1.645 3.46 0.5 1.875 4.685 2.23 4.955-0.645s-1.78-3.22-3.31-2.815zM18.725 15.62c-0.185 1.94-2.83 1.78-3.265 0.655s-0.275-2.165 1.145-2.545c1.025-0.29 2.295-0.065 2.115 1.875z"></path>
</symbol>
</defs>
</svg>
